<!--?xml version="1.0" encoding="utf-8"?-->
<!-- Svg Vector Icons : http://www.onlinewebfonts.com/icon -->

<svg version="1.1" xmlns="http://www.w3.org/2000/svg" xmlns:xlink="http://www.w3.org/1999/xlink" x="0px" y="0px" viewBox="0 0 256 256" enable-background="new 0 0 256 256" xml:space="preserve">
<metadata> Svg Vector Icons : http://www.onlinewebfonts.com/icon </metadata>
<g><g><g><path fill="#FFFFFF" data-title="Layer 0" xs="0" d="M112.9,10.6c-20.8,3-38.7,10.4-55.8,23C51,38.2,38.3,51,33.7,57.1C20.5,74.8,12.9,94,10.4,115.3c-0.9,7.5-0.4,25.3,0.9,32.2c2.3,11.9,5.5,21.6,10.7,32.2c6.6,13.2,13.4,22.5,24.2,32.9c17.4,16.9,38.3,27.6,62.2,32c7.5,1.4,23.7,1.9,31.8,1c26.5-2.9,50.1-14,69.6-32.8c15.2-14.7,25.5-31.5,31.6-51.3c3.8-12.5,5-22.5,4.6-37.1c-0.5-18.2-4.1-32.7-12.5-49.1c-6.3-12.4-13.3-21.8-23.7-31.9c-17.3-16.9-37.8-27.4-62.2-32C140.6,10,120.1,9.6,112.9,10.6z M144.8,21.1c34.2,5.4,63,25.9,78.8,56.1c7.7,14.6,11.6,29.5,12.3,46.7c2.5,63.4-48.5,114.3-111.9,111.9c-13.1-0.6-24.7-2.9-35.7-7.2c-36.2-14.3-60.9-45.2-67.2-84.2c-1.2-7.4-1.2-25.3,0-32.9c6.1-39,31-70.2,67.4-84.4c8.8-3.5,19-5.8,30.2-7C122.9,19.8,140,20.4,144.8,21.1z"/><path fill="#FFF" data-title="Layer 1" xs="1" d="M121.2,46.3c-8.5,1.7-15.5,5.4-21.9,11.8C88.8,68.6,84.7,82.7,88.1,96.3c3,12,12,22.6,23.5,27.9c5.9,2.8,9.4,3.5,16.4,3.5c7,0,10.5-0.7,16.4-3.5c4.6-2.1,7.7-4.2,11.7-8c15.5-14.8,17.3-37.2,4.3-54.1c-4-5.3-10.3-10.2-16.1-12.8C137.2,46.2,128,45,121.2,46.3z M136,56.9c10.7,2.5,19.4,11.4,22,22.3c1.2,4.8,0.8,13.8-0.8,18.2c-3.8,11.1-13.4,18.7-25.1,20c-15.4,1.7-28.5-6.2-33.3-20c-1.5-4.4-1.9-13.4-0.8-18.2c2.5-10.7,11.3-19.7,21.8-22.2C123.7,56,132,56,136,56.9z"/><path fill="#FFFFFF" data-title="Layer 2" xs="2" d="M114.4,138.8c-23.9,2.9-41.6,8.9-57.8,19.6c-6.2,4.1-10.4,7.8-10.8,9.7c-0.4,1.9,0.6,4.1,4.4,10c12.7,19.4,32.7,33.7,54.9,39.4c8.9,2.3,12,2.6,23.4,2.6c9.7,0,11.5-0.2,17.1-1.4c24.8-5.2,45.8-19.3,59.5-39.8c4.4-6.5,5.5-8.8,5-10.9c-0.4-1.9-4.6-5.6-10.8-9.7c-14.4-9.5-30.2-15.4-50.5-18.7C144,139,119,138.2,114.4,138.8z M140.3,149c20.4,1.9,38.6,7.9,52.9,17.5c2.5,1.7,4.8,3.4,4.9,3.7c0.2,0.3-0.9,2.4-2.5,4.7c-19.8,28.9-55.6,41.7-90.4,32.2c-17.8-4.9-34.2-16.7-44.9-32.3c-1.5-2.2-2.6-4.3-2.4-4.6c0.6-1.1,9.3-6.6,14.1-9.1c12.2-6.2,27.6-10.5,42.9-12C121.3,148.5,134,148.5,140.3,149z"/></g></g></g>
</svg>